<?xml version="1.0" standalone="no"?>
<!DOCTYPE svg PUBLIC "-//W3C//DTD SVG 20010904//EN"
 "http://www.w3.org/TR/2001/REC-SVG-20010904/DTD/svg10.dtd">
<svg version="1.0" xmlns="http://www.w3.org/2000/svg"
 width="24.000000pt" height="24.000000pt" viewBox="0 0 24.000000 24.000000"
 preserveAspectRatio="xMidYMid meet">

<g transform="translate(0.000000,24.000000) scale(0.100000,-0.100000)"
fill="#000000" stroke="none">
<path d="M39 201 c-32 -32 -39 -46 -39 -77 0 -76 15 -71 66 20 27 47 51 86 54
86 3 0 27 -39 54 -86 51 -91 66 -96 66 -20 0 31 -7 45 -39 77 -33 33 -45 39
-81 39 -36 0 -48 -6 -81 -39z"/>
<path d="M110 170 c0 -5 5 -10 10 -10 6 0 10 5 10 10 0 6 -4 10 -10 10 -5 0
-10 -4 -10 -10z"/>
<path d="M94 139 c-7 -11 14 -59 26 -59 12 0 33 48 26 59 -4 6 -16 11 -26 11
-10 0 -22 -5 -26 -11z"/>
<path d="M67 103 c-13 -12 -7 -23 13 -23 13 0 18 5 14 15 -7 16 -17 19 -27 8z"/>
<path d="M146 95 c-4 -10 1 -15 14 -15 13 0 18 5 14 15 -4 8 -10 15 -14 15 -4
0 -10 -7 -14 -15z"/>
<path d="M30 51 c0 -21 54 -51 90 -51 36 0 90 30 90 51 0 5 -40 9 -90 9 -50 0
-90 -4 -90 -9z"/>
</g>
</svg>
